# xmcd CD database file
#
# Track frame offsets:
#	187
#	18295
#	32855
#
# Disc length: 679 seconds
#
# Revision: 0
# Processed by: cddbd v1.5PL3 Copyright (c) Steve Scherf et al.
# Submitted via: CDex 1.40Release
#
DISCID=1a02a503
DTITLE=清水咲斗子 - コンパイラ
DYEAR=1992
DGENRE=Anime
TTITLE0=Unseen Love
TTITLE1=KITCHEN DISCO THEQUE
TTITLE2=Unseen Love (Instrumental)
EXTD=YEAR: 1992
EXTT0=
EXTT1=
EXTT2=
PLAYORDER=
